# 3ds Max Wavefront OBJ Exporter v0.97b - (c)2007 guruware
# File Created: 21.01.2019 00:55:25

#
# object fish0
#

v  0.1087 -0.0000 -0.2484
v  0.0835 0.1158 -0.2746
v  0.0733 0.1060 -0.2282
v  0.1035 -0.0000 -0.2238
v  0.0600 0.1630 -0.2983
v  0.0451 0.1462 -0.2334
v  0.0250 0.1158 -0.2744
v  0.0148 0.1060 -0.2280
v  -0.0120 -0.0000 -0.2462
v  -0.0172 -0.0000 -0.2218
v  0.0621 0.0746 -0.1684
v  0.0932 -0.0000 -0.1685
v  0.0328 0.1159 -0.1684
v  0.0036 0.0746 -0.1681
v  -0.0275 -0.0000 -0.1670
v  0.0405 0.0264 -0.1008
v  0.0597 -0.0000 -0.1008
v  0.0225 0.0492 -0.1007
v  0.0045 0.0264 -0.1006
v  -0.0147 -0.0000 -0.1002
v  0.0434 0.0745 -0.0308
v  0.0744 -0.0000 -0.0308
v  0.0141 0.1083 -0.0307
v  -0.0152 0.0745 -0.0306
v  -0.0462 -0.0000 -0.0301
v  0.0396 0.0894 0.0419
v  0.0734 -0.0000 0.0419
v  0.0087 0.1244 0.0286
v  -0.0242 0.0894 0.0420
v  -0.0581 -0.0000 0.0423
v  0.0362 0.0926 0.1172
v  0.0713 -0.0000 0.1172
v  -0.0649 -0.0000 0.1173
v  -0.0298 0.0926 0.1172
v  0.0337 0.0925 0.1950
v  0.0687 -0.0000 0.1950
v  -0.0673 -0.0000 0.1950
v  -0.0323 0.0925 0.1950
v  0.0306 0.0707 0.2941
v  0.0631 -0.0000 0.2941
v  0.0002 0.1261 0.2327
v  -0.0000 0.1061 0.2941
v  -0.0306 0.0707 0.2941
v  -0.0631 -0.0000 0.2941
v  0.0138 0.0113 0.4143
v  0.0196 -0.0121 0.4068
v  -0.0000 0.0273 0.4090
v  -0.0138 0.0113 0.4143
v  -0.0196 -0.0121 0.4068
v  0.0068 0.1966 0.0542
v  0.0033 0.1817 0.1141
v  0.0011 0.1579 0.1756
v  0.0733 -0.1060 -0.2278
v  0.0835 -0.1158 -0.2741
v  0.0451 -0.1462 -0.2317
v  0.0600 -0.1630 -0.2957
v  0.0148 -0.1060 -0.2255
v  0.0250 -0.1158 -0.2710
v  0.0621 -0.0746 -0.1682
v  0.0328 -0.1159 -0.1674
v  0.0036 -0.0746 -0.1668
v  0.0405 -0.0264 -0.1007
v  0.0225 -0.0492 -0.1005
v  0.0045 -0.0264 -0.1003
v  0.0434 -0.0745 -0.0307
v  0.0141 -0.1083 -0.0303
v  -0.0152 -0.0745 -0.0301
v  0.0396 -0.0894 0.0420
v  0.0087 -0.1244 0.0289
v  -0.0242 -0.0894 0.0424
v  0.0362 -0.0926 0.1172
v  -0.0298 -0.0926 0.1174
v  0.0337 -0.0925 0.1950
v  -0.0323 -0.0925 0.1950
v  0.0306 -0.0707 0.2941
v  -0.0000 -0.1061 0.2941
v  0.0002 -0.1261 0.2327
v  -0.0306 -0.0707 0.2941
v  0.0231 -0.0497 0.3337
v  -0.0000 -0.0711 0.3508
v  -0.0230 -0.0493 0.3344
v  0.0068 -0.1966 0.0546
v  0.0033 -0.1817 0.1143
v  0.0011 -0.1579 0.1756
v  -0.0211 -0.0355 0.3831
v  0.0211 -0.0355 0.3831
v  -0.0000 -0.0515 0.4022
# 87 vertices

vn 0.8264 -0.0011 -0.5630
vn 0.8176 0.0425 -0.5742
vn 0.9069 0.3350 0.2556
vn 0.9908 0.0002 0.1353
vn 0.1015 0.7214 -0.6850
vn -0.0435 0.9499 0.3096
vn -0.7221 0.0599 -0.6892
vn -0.9375 0.3479 0.0046
vn -0.7527 -0.0081 -0.6583
vn -0.9907 -0.0015 -0.1363
vn 0.8715 0.3353 0.3579
vn 0.9749 0.0003 0.2225
vn -0.0551 0.8513 0.5217
vn -0.9200 0.3560 0.1640
vn -1.0000 0.0000 0.0017
vn 0.8863 0.4568 0.0769
vn 0.9950 0.0001 0.0997
vn -0.0129 0.9973 0.0724
vn -0.8874 0.4567 -0.0631
vn -0.9958 -0.0004 -0.0913
vn 0.8983 0.4021 -0.1770
vn 0.9978 -0.0000 -0.0664
vn 0.0179 0.9074 -0.4200
vn -0.8743 0.3885 -0.2910
vn -0.9795 -0.0007 -0.2017
vn 0.9510 0.3027 -0.0635
vn 0.9999 0.0000 0.0145
vn 0.0169 0.6223 -0.7826
vn -0.9424 0.2954 -0.1569
vn -0.9962 -0.0002 -0.0870
vn 0.9680 0.2499 0.0207
vn 0.9998 0.0000 0.0213
vn -0.9991 -0.0000 -0.0419
vn -0.9675 0.2497 -0.0403
vn 0.9422 0.3247 0.0829
vn 0.9995 0.0000 0.0311
vn -1.0000 -0.0000 0.0041
vn -0.9443 0.3241 0.0568
vn 0.8920 0.4070 0.1969
vn 0.9890 0.0051 0.1476
vn -0.0070 0.9265 0.3762
vn -0.0008 0.9105 0.4135
vn -0.8928 0.4072 0.1926
vn -0.9897 0.0050 0.1430
vn 0.2298 0.0019 0.9732
vn 0.5913 -0.3648 0.7192
vn -0.0000 0.7278 0.6858
vn -0.2298 0.0019 0.9732
vn -0.5913 -0.3648 0.7192
vn 0.0117 0.9453 -0.3260
vn -0.0134 0.9569 0.2900
vn -0.0122 0.9172 0.3983
vn 0.9090 -0.3303 0.2542
vn 0.7953 -0.0364 -0.6052
vn -0.0406 -0.9488 0.3131
vn 0.0986 -0.7275 -0.6790
vn -0.9369 -0.3496 0.0064
vn -0.7436 -0.0827 -0.6635
vn 0.8734 -0.3319 0.3566
vn -0.0526 -0.8490 0.5258
vn -0.9194 -0.3559 0.1674
vn 0.8864 -0.4564 0.0770
vn -0.0126 -0.9972 0.0735
vn -0.8873 -0.4570 -0.0618
vn 0.8977 -0.4030 -0.1779
vn 0.0169 -0.9074 -0.4199
vn -0.8746 -0.3885 -0.2899
vn 0.9508 -0.3032 -0.0636
vn 0.0138 -0.6221 -0.7828
vn -0.9424 -0.2953 -0.1570
vn 0.9681 -0.2499 0.0207
vn -0.9675 -0.2498 -0.0404
vn 0.9422 -0.3247 0.0829
vn -0.9443 -0.3241 0.0568
vn 0.8880 -0.4054 0.2171
vn -0.0008 -0.9177 0.3973
vn -0.0070 -0.9264 0.3764
vn -0.8889 -0.4056 0.2129
vn 0.8916 -0.3927 0.2254
vn -0.0018 -0.9015 0.4328
vn -0.8916 -0.3939 0.2231
vn 0.0117 -0.9456 -0.3251
vn -0.0134 -0.9567 0.2906
vn -0.0122 -0.9170 0.3988
vn -0.7810 -0.3842 0.4924
vn 0.7811 -0.3826 0.4934
vn -0.0000 -0.3116 0.9502
# 87 vertex normals

vt 0.7500 0.0000 1.0000
vt 0.8750 0.0000 1.0000
vt 0.8750 0.1250 1.0000
vt 0.7500 0.1250 1.0000
vt -0.1250 0.0000 1.0000
vt 0.0000 0.0000 1.0000
vt 0.0000 0.1250 1.0000
vt -0.1250 0.1250 1.0000
vt 0.1250 0.0000 1.0000
vt 0.1250 0.1250 1.0000
vt 0.2500 0.0000 1.0000
vt 0.2500 0.1250 1.0000
vt 0.8750 0.2500 1.0000
vt 0.7500 0.2500 1.0000
vt 0.0000 0.2500 1.0000
vt -0.1250 0.2500 1.0000
vt 0.1250 0.2500 1.0000
vt 0.2500 0.2500 1.0000
vt 0.8750 0.3750 1.0000
vt 0.7500 0.3750 1.0000
vt 0.0000 0.3750 1.0000
vt -0.1250 0.3750 1.0000
vt 0.1250 0.3750 1.0000
vt 0.2500 0.3750 1.0000
vt 0.8750 0.5000 1.0000
vt 0.7500 0.5000 1.0000
vt 0.0000 0.5000 1.0000
vt -0.1250 0.5000 1.0000
vt 0.1250 0.5000 1.0000
vt 0.2500 0.5000 1.0000
vt 0.8750 0.6250 1.0000
vt 0.7500 0.6250 1.0000
vt 0.0000 0.6250 1.0000
vt -0.1250 0.6250 1.0000
vt 0.1250 0.6250 1.0000
vt 0.2500 0.6250 1.0000
vt 0.8750 0.7500 1.0000
vt 0.7500 0.7500 1.0000
vt 0.2500 0.7500 1.0000
vt 0.1250 0.7500 1.0000
vt 0.8750 0.8750 1.0000
vt 0.7500 0.8750 1.0000
vt 0.2500 0.8750 1.0000
vt 0.1250 0.8750 1.0000
vt 0.8750 1.0000 1.0000
vt 0.7500 1.0000 1.0000
vt -0.1250 0.8750 1.0000
vt 0.0000 0.8750 1.0000
vt 0.0000 1.0000 1.0000
vt -0.1250 1.0000 1.0000
vt 0.1250 1.0000 1.0000
vt 0.2500 1.0000 1.0000
vt 0.7803 1.0000 0.4142
vt 0.5214 1.0000 -0.4142
vt 0.2500 1.0000 -1.0000
vt -0.1250 0.7500 1.0000
vt 0.2500 0.0000 -1.0000
vt 0.5214 0.0000 -0.4142
vt 0.7803 0.0000 0.4142
# 59 texture coords

o fish0
g fish0
f 1/1/1 2/2/2 3/3/3 4/4/4 
f 2/5/2 5/6/5 6/7/6 3/8/3 
f 5/6/5 7/9/7 8/10/8 6/7/6 
f 7/9/7 9/11/9 10/12/10 8/10/8 
f 4/4/4 3/3/3 11/13/11 12/14/12 
f 3/8/3 6/7/6 13/15/13 11/16/11 
f 6/7/6 8/10/8 14/17/14 13/15/13 
f 8/10/8 10/12/10 15/18/15 14/17/14 
f 12/14/12 11/13/11 16/19/16 17/20/17 
f 11/16/11 13/15/13 18/21/18 16/22/16 
f 13/15/13 14/17/14 19/23/19 18/21/18 
f 14/17/14 15/18/15 20/24/20 19/23/19 
f 17/20/17 16/19/16 21/25/21 22/26/22 
f 16/22/16 18/21/18 23/27/23 21/28/21 
f 18/21/18 19/23/19 24/29/24 23/27/23 
f 19/23/19 20/24/20 25/30/25 24/29/24 
f 22/26/22 21/25/21 26/31/26 27/32/27 
f 21/28/21 23/27/23 28/33/28 26/34/26 
f 23/27/23 24/29/24 29/35/29 28/33/28 
f 24/29/24 25/30/25 30/36/30 29/35/29 
f 27/32/27 26/31/26 31/37/31 32/38/32 
f 29/35/29 30/36/30 33/39/33 34/40/34 
f 32/38/32 31/37/31 35/41/35 36/42/36 
f 34/40/34 33/39/33 37/43/37 38/44/38 
f 36/42/36 35/41/35 39/45/39 40/46/40 
f 35/47/35 41/48/41 42/49/42 39/50/39 
f 41/48/41 38/44/38 43/51/43 42/49/42 
f 38/44/38 37/43/37 44/52/44 43/51/43 
f 40/46/40 39/45/39 45/45/45 46/46/46 
f 39/45/39 42/53/42 47/53/47 45/45/45 
f 42/53/42 43/54/43 48/54/48 47/53/47 
f 43/54/43 44/55/44 49/55/49 48/54/48 
f 26/34/26 28/33/28 50/34/50 
f 28/33/28 29/35/29 50/34/50 
f 29/35/29 34/40/34 51/40/51 50/34/50 
f 34/40/34 38/44/38 52/44/52 51/40/51 
f 38/44/38 41/48/41 52/44/52 
f 41/48/41 35/47/35 52/44/52 
f 35/47/35 31/56/31 51/40/51 52/44/52 
f 31/56/31 26/34/26 50/34/50 51/40/51 
f 46/46/46 45/45/45 47/53/47 48/54/48 49/55/49 
f 9/57/9 7/58/7 2/2/2 1/1/1 
f 7/58/7 5/59/5 2/2/2 
f 1/1/1 4/4/4 53/3/53 54/2/54 
f 54/5/54 53/8/53 55/7/55 56/6/56 
f 56/6/56 55/7/55 57/10/57 58/9/58 
f 58/9/58 57/10/57 10/12/10 9/11/9 
f 4/4/4 12/14/12 59/13/59 53/3/53 
f 53/8/53 59/16/59 60/15/60 55/7/55 
f 55/7/55 60/15/60 61/17/61 57/10/57 
f 57/10/57 61/17/61 15/18/15 10/12/10 
f 12/14/12 17/20/17 62/19/62 59/13/59 
f 59/16/59 62/22/62 63/21/63 60/15/60 
f 60/15/60 63/21/63 64/23/64 61/17/61 
f 61/17/61 64/23/64 20/24/20 15/18/15 
f 17/20/17 22/26/22 65/25/65 62/19/62 
f 62/22/62 65/28/65 66/27/66 63/21/63 
f 63/21/63 66/27/66 67/29/67 64/23/64 
f 64/23/64 67/29/67 25/30/25 20/24/20 
f 22/26/22 27/32/27 68/31/68 65/25/65 
f 65/28/65 68/34/68 69/33/69 66/27/66 
f 66/27/66 69/33/69 70/35/70 67/29/67 
f 67/29/67 70/35/70 30/36/30 25/30/25 
f 27/32/27 32/38/32 71/37/71 68/31/68 
f 70/35/70 72/40/72 33/39/33 30/36/30 
f 32/38/32 36/42/36 73/41/73 71/37/71 
f 72/40/72 74/44/74 37/43/37 33/39/33 
f 36/42/36 40/46/40 75/45/75 73/41/73 
f 73/47/73 75/50/75 76/49/76 77/48/77 
f 77/48/77 76/49/76 78/51/78 74/44/74 
f 74/44/74 78/51/78 44/52/44 37/43/37 
f 40/46/40 79/45/79 75/45/75 
f 75/45/75 79/45/79 80/53/80 76/53/76 
f 76/53/76 80/53/80 81/54/81 78/54/78 
f 78/54/78 81/54/81 44/55/44 
f 68/34/68 82/34/82 69/33/69 
f 69/33/69 82/34/82 70/35/70 
f 70/35/70 82/34/82 83/40/83 72/40/72 
f 72/40/72 83/40/83 84/44/84 74/44/74 
f 74/44/74 84/44/84 77/48/77 
f 77/48/77 84/44/84 73/47/73 
f 73/47/73 84/44/84 83/40/83 71/56/71 
f 71/56/71 83/40/83 82/34/82 68/34/68 
f 46/46/46 49/55/49 85/54/85 86/45/86 
f 9/57/9 1/1/1 54/2/54 58/58/58 
f 58/58/58 54/2/54 56/59/56 
f 40/46/40 46/46/46 86/45/86 
f 85/54/85 49/55/49 44/55/44 
f 85/54/85 87/53/87 86/45/86 
f 40/46/40 86/45/86 79/45/79 
f 79/45/79 86/45/86 87/53/87 80/53/80 
f 80/53/80 87/53/87 85/54/85 81/54/81 
f 81/54/81 85/54/85 44/55/44 
# 76 polygons - 17 triangles

