# 3ds Max Wavefront OBJ Exporter v0.97b - (c)2007 guruware
# File Created: 26.09.2017 13:54:37

#
# object Sphere001
#

v  -0.6784 1.0204 2.3682
v  -0.9341 0.5957 1.7035
v  -0.9304 -0.0000 1.9781
v  -0.6784 0.1544 2.7346
v  -0.6784 1.6544 1.3673
v  -0.9403 1.0204 0.9741
v  -0.6784 1.8865 0.0000
v  -0.9430 1.1726 0.0000
v  -0.6784 1.6544 -1.3673
v  -0.9403 1.0204 -0.9741
v  -0.6784 1.0204 -2.3682
v  -0.9341 0.5957 -1.7035
v  -0.6784 0.1544 -2.7346
v  -0.9304 -0.0000 -1.9781
v  0.4185 1.3451 2.5737
v  0.4185 0.3451 2.9770
v  0.4185 2.0771 1.4808
v  0.4185 2.3451 0.0000
v  0.4185 2.0771 -1.4807
v  0.4185 1.3451 -2.5737
v  0.4185 0.3451 -2.9770
v  1.3288 0.2424 2.4733
v  1.3288 1.1754 2.1397
v  1.3288 1.8585 1.2328
v  1.3288 2.1085 0.0000
v  1.3288 1.8585 -1.2328
v  1.3288 1.1754 -2.1397
v  1.3288 0.2424 -2.4733
v  3.4653 0.5000 0.7403
v  2.2390 0.8824 1.5619
v  2.2390 0.0835 1.8035
v  3.4653 -0.0000 0.8549
v  3.4653 0.8660 0.4274
v  2.2390 1.4673 0.9018
v  3.4653 1.0000 0.0000
v  2.2390 1.6813 0.0000
v  3.4653 0.8660 -0.4274
v  2.2390 1.4673 -0.9017
v  3.4653 0.5000 -0.7403
v  2.2390 0.8824 -1.5619
v  3.4653 0.0000 -0.8549
v  2.2390 0.0835 -1.8035
v  4.6365 0.0000 0.0000
v  -0.9543 0.4115 1.2083
v  -0.9543 -0.0000 1.3953
v  -0.9543 0.7128 0.6976
v  -0.9543 0.8231 0.0000
v  -0.9543 0.7128 -0.6976
v  -0.9543 0.4115 -1.2083
v  -0.9543 -0.0000 -1.3953
v  -0.6623 0.3319 0.8477
v  -0.6623 0.0431 0.9789
v  -0.6623 0.5432 0.4894
v  -0.6623 0.6206 0.0000
v  -0.6623 0.5432 -0.4894
v  -0.6623 0.3319 -0.8477
v  -0.6623 0.0431 -0.9789
v  -0.4749 -0.0121 0.6294
v  -0.4738 0.2239 0.5340
v  -0.4656 0.3521 0.3035
v  -0.4624 0.3980 0.0000
v  -0.4656 0.3521 -0.3035
v  -0.4738 0.2239 -0.5340
v  -0.4749 -0.0121 -0.6294
# 64 vertices

vn -0.6148 0.3620 0.7007
vn -0.9653 0.1128 0.2354
vn -0.9617 0.0666 0.2660
vn -0.6291 0.1855 0.7549
vn -0.6779 0.6198 0.3955
vn -0.9755 0.1837 0.1211
vn -0.7018 0.7124 -0.0026
vn -0.9787 0.2053 -0.0007
vn -0.6743 0.6211 -0.3993
vn -0.9751 0.1846 -0.1229
vn -0.6127 0.3645 -0.7012
vn -0.9649 0.1136 -0.2369
vn -0.6285 0.1897 -0.7543
vn -0.9613 0.0684 -0.2668
vn 0.0479 0.4741 0.8791
vn 0.0786 0.2307 0.9698
vn -0.0236 0.8441 0.5356
vn -0.0612 0.9981 -0.0015
vn -0.0280 0.8436 -0.5363
vn 0.0430 0.4761 -0.8784
vn 0.0755 0.2333 -0.9695
vn 0.3899 0.1962 0.8997
vn 0.3886 0.3970 0.8315
vn 0.3720 0.7580 0.5358
vn 0.3611 0.9325 0.0000
vn 0.3720 0.7580 -0.5358
vn 0.3886 0.3970 -0.8315
vn 0.3899 0.1962 -0.8997
vn 0.4595 0.2692 0.8464
vn 0.4387 0.3354 0.8337
vn 0.4300 0.1607 0.8884
vn 0.4288 0.1210 0.8953
vn 0.5396 0.5969 0.5938
vn 0.4580 0.6902 0.5602
vn 0.5886 0.8084 -0.0089
vn 0.4796 0.8775 -0.0023
vn 0.5217 0.6017 -0.6048
vn 0.4668 0.6857 -0.5585
vn 0.4475 0.2755 -0.8508
vn 0.4476 0.3363 -0.8286
vn 0.4217 0.1283 -0.8976
vn 0.4352 0.1649 -0.8851
vn 0.8246 0.5657 0.0000
vn -0.9423 -0.1641 -0.2917
vn -0.9505 -0.0804 -0.3001
vn -0.9336 -0.3101 -0.1798
vn -0.9296 -0.3685 -0.0000
vn -0.9336 -0.3101 0.1798
vn -0.9423 -0.1641 0.2917
vn -0.9505 -0.0804 0.3001
vn -0.6993 -0.3637 -0.6154
vn -0.7025 -0.1842 -0.6874
vn -0.6825 -0.6353 -0.3614
vn -0.6759 -0.7370 -0.0003
vn -0.6814 -0.6364 0.3615
vn -0.6969 -0.3657 0.6169
vn -0.6993 -0.1807 0.6916
vn -0.7656 -0.1569 -0.6239
vn -0.7698 -0.3086 -0.5587
vn -0.7665 -0.5543 -0.3245
vn -0.7663 -0.6425 -0.0015
vn -0.7693 -0.5524 0.3211
vn -0.7753 -0.3076 0.5516
vn -0.7723 -0.1442 0.6186
# 64 vertex normals

vt 0.5833 0.6667 0.0000
vt 0.5833 0.7897 0.0000
vt 0.5000 0.7880 0.0000
vt 0.5000 0.6667 0.0000
vt 0.6667 0.6667 0.0000
vt 0.6667 0.7927 0.0000
vt 0.7500 0.6667 0.0000
vt 0.7500 0.7940 0.0000
vt 0.8333 0.6667 0.0000
vt 0.8333 0.7927 0.0000
vt 0.9167 0.6667 0.0000
vt 0.9167 0.7897 0.0000
vt 1.0000 0.6667 0.0000
vt 1.0000 0.7880 0.0000
vt 0.5833 0.5000 0.0000
vt 0.5000 0.5000 0.0000
vt 0.6667 0.5000 0.0000
vt 0.7500 0.5000 0.0000
vt 0.8333 0.5000 0.0000
vt 0.9167 0.5000 0.0000
vt 1.0000 0.5000 0.0000
vt 0.5000 0.4167 0.0000
vt 0.5833 0.4167 0.0000
vt 0.6667 0.4167 0.0000
vt 0.7500 0.4167 0.0000
vt 0.8333 0.4167 0.0000
vt 0.9167 0.4167 0.0000
vt 1.0000 0.4167 0.0000
vt 0.5833 0.1667 0.0000
vt 0.5833 0.3333 0.0000
vt 0.5000 0.3333 0.0000
vt 0.5000 0.1667 0.0000
vt 0.6667 0.1667 0.0000
vt 0.6667 0.3333 0.0000
vt 0.7500 0.1667 0.0000
vt 0.7500 0.3333 0.0000
vt 0.8333 0.1667 0.0000
vt 0.8333 0.3333 0.0000
vt 0.9167 0.1667 0.0000
vt 0.9167 0.3333 0.0000
vt 1.0000 0.1667 0.0000
vt 1.0000 0.3333 0.0000
vt 0.5000 0.0000 0.0000
vt 0.5833 0.0000 0.0000
vt 0.6667 0.0000 0.0000
vt 0.7500 0.0000 0.0000
vt 0.8333 0.0000 0.0000
vt 0.9167 0.0000 0.0000
vt 0.5686 0.8628 0.0000
vt 0.5000 0.8628 0.0000
vt 0.6519 0.8628 0.0000
vt 0.7353 0.8628 0.0000
vt 0.8186 0.8628 0.0000
vt 0.9019 0.8628 0.0000
vt 0.9853 0.8628 0.0000
# 55 texture coords

g Sphere001
s 1
f 1/1/1 2/2/2 3/3/3 4/4/4 
f 5/5/5 6/6/6 2/2/2 1/1/1 
f 7/7/7 8/8/8 6/6/6 5/5/5 
f 9/9/9 10/10/10 8/8/8 7/7/7 
f 11/11/11 12/12/12 10/10/10 9/9/9 
f 13/13/13 14/14/14 12/12/12 11/11/11 
f 15/15/15 1/1/1 4/4/4 16/16/16 
f 17/17/17 5/5/5 1/1/1 15/15/15 
f 18/18/18 7/7/7 5/5/5 17/17/17 
f 19/19/19 9/9/9 7/7/7 18/18/18 
f 20/20/20 11/11/11 9/9/9 19/19/19 
f 21/21/21 13/13/13 11/11/11 20/20/20 
f 22/22/22 23/23/23 15/15/15 16/16/16 
f 23/23/23 24/24/24 17/17/17 15/15/15 
f 24/24/24 25/25/25 18/18/18 17/17/17 
f 18/18/18 25/25/25 26/26/26 19/19/19 
f 19/19/19 26/26/26 27/27/27 20/20/20 
f 20/20/20 27/27/27 28/28/28 21/21/21 
f 29/29/29 30/30/30 31/31/31 32/32/32 
f 33/33/33 34/34/34 30/30/30 29/29/29 
f 35/35/35 36/36/36 34/34/34 33/33/33 
f 37/37/37 38/38/38 36/36/36 35/35/35 
f 39/39/39 40/40/40 38/38/38 37/37/37 
f 41/41/41 42/42/42 40/40/40 39/39/39 
f 43/43/43 29/29/29 32/32/32 
f 43/44/43 33/33/33 29/29/29 
f 43/45/43 35/35/35 33/33/33 
f 43/46/43 37/37/37 35/35/35 
f 43/47/43 39/39/39 37/37/37 
f 43/48/43 41/41/41 39/39/39 
f 3/3/3 2/2/2 44/49/44 45/50/45 
f 2/2/2 6/6/6 46/51/46 44/49/44 
f 6/6/6 8/8/8 47/52/47 46/51/46 
f 47/52/47 8/8/8 10/10/10 48/53/48 
f 48/53/48 10/10/10 12/12/12 49/54/49 
f 49/54/49 12/12/12 14/14/14 50/55/50 
f 31/31/31 30/30/30 23/23/23 22/22/22 
f 30/30/30 34/34/34 24/24/24 23/23/23 
f 34/34/34 36/36/36 25/25/25 24/24/24 
f 25/25/25 36/36/36 38/38/38 26/26/26 
f 26/26/26 38/38/38 40/40/40 27/27/27 
f 27/27/27 40/40/40 42/42/42 28/28/28 
f 44/49/44 51/49/51 52/50/52 45/50/45 
f 46/51/46 53/51/53 51/49/51 44/49/44 
f 47/52/47 54/52/54 53/51/53 46/51/46 
f 55/53/55 54/52/54 47/52/47 48/53/48 
f 56/54/56 55/53/55 48/53/48 49/54/49 
f 57/55/57 56/54/56 49/54/49 50/55/50 
f 58/50/58 52/50/52 51/49/51 59/49/59 
f 59/49/59 51/49/51 53/51/53 60/51/60 
f 60/51/60 53/51/53 54/52/54 61/52/61 
f 61/52/61 54/52/54 55/53/55 62/53/62 
f 62/53/62 55/53/55 56/54/56 63/54/63 
f 63/54/63 56/54/56 57/55/57 64/55/64 
# 48 polygons - 6 triangles

